<svg width="76" height="76" viewBox="0 0 76 76" fill="none" xmlns="http://www.w3.org/2000/svg">
<path d="M56.2083 16.7568C56.2083 16.3544 56.0485 15.9685 55.7639 15.6839C55.4793 15.3993 55.0934 15.2395 54.691 15.2395H44.0694V4.61795C44.0694 4.21552 43.9096 3.82957 43.625 3.54501C43.3405 3.26045 42.9545 3.10059 42.5521 3.10059H33.4479C33.0455 3.10059 32.6595 3.26045 32.375 3.54501C32.0904 3.82957 31.9306 4.21552 31.9306 4.61795V15.2395H21.309C20.9066 15.2395 20.5206 15.3993 20.2361 15.6839C19.9515 15.9685 19.7917 16.3544 19.7917 16.7568V25.861C19.7917 26.2634 19.9515 26.6494 20.2361 26.9339C20.5206 27.2185 20.9066 27.3784 21.309 27.3784H31.9306V37.9999C31.9306 38.4023 32.0904 38.7883 32.375 39.0728C32.6595 39.3574 33.0455 39.5173 33.4479 39.5173H42.5521C42.9545 39.5173 43.3405 39.3574 43.625 39.0728C43.9096 38.7883 44.0694 38.4023 44.0694 37.9999V27.3784H54.691C55.0934 27.3784 55.4793 27.2185 55.7639 26.9339C56.0485 26.6494 56.2083 26.2634 56.2083 25.861V16.7568Z" stroke="black" stroke-width="2" stroke-linecap="round" stroke-linejoin="round"/>
<path d="M12.2049 72.8992L6.10507 65.3124C4.15349 62.8975 3.08309 59.8897 3.07035 56.7848V41.0346C3.07033 40.4343 3.18907 39.8398 3.41973 39.2856C3.65039 38.7313 3.98841 38.2281 4.41433 37.805C4.84025 37.3819 5.34566 37.0473 5.90145 36.8203C6.45724 36.5933 7.05244 36.4785 7.65278 36.4825C8.25057 36.4825 8.8425 36.6003 9.39478 36.829C9.94707 37.0578 10.4489 37.3931 10.8716 37.8158C11.2943 38.2385 11.6296 38.7403 11.8584 39.2926C12.0871 39.8449 12.2049 40.4368 12.2049 41.0346V52.779" stroke="black" stroke-width="2" stroke-linecap="round" stroke-linejoin="round"/>
<path d="M25.8611 72.4744V63.3702C25.8665 60.6772 25.063 58.0447 23.5547 55.8137L20.0951 50.594C19.7954 50.0956 19.3971 49.6635 18.9247 49.3242C18.4524 48.9849 17.9158 48.7454 17.3477 48.6204C16.7797 48.4955 16.1921 48.4876 15.621 48.5974C15.0498 48.7071 14.507 48.9322 14.0257 49.2587C13.1677 49.8356 12.5495 50.7055 12.287 51.7055C12.0244 52.7055 12.1355 53.7669 12.5994 54.6909L16.7569 61.519" stroke="black" stroke-width="2" stroke-linecap="round" stroke-linejoin="round"/>
<path d="M63.7951 72.8991L69.8646 65.2516C71.8162 62.8367 72.8866 59.8289 72.8993 56.724V41.0345C72.8993 39.8272 72.4197 38.6694 71.566 37.8157C70.7123 36.962 69.5545 36.4824 68.3472 36.4824C67.1399 36.4824 65.9821 36.962 65.1284 37.8157C64.2747 38.6694 63.7951 39.8272 63.7951 41.0345V52.8092" stroke="black" stroke-width="2" stroke-linecap="round" stroke-linejoin="round"/>
<path d="M50.1389 72.4744V63.3702C50.1335 60.6772 50.937 58.0447 52.4453 55.8137L55.9049 50.594C56.2046 50.0956 56.6029 49.6635 57.0753 49.3242C57.5476 48.9849 58.0842 48.7454 58.6523 48.6204C59.2203 48.4955 59.8079 48.4876 60.379 48.5974C60.9502 48.7071 61.493 48.9322 61.9743 49.2587C62.8323 49.8356 63.4505 50.7055 63.713 51.7055C63.9756 52.7055 63.8645 53.7669 63.4006 54.6909L59.2431 61.519" stroke="black" stroke-width="2" stroke-linecap="round" stroke-linejoin="round"/>
</svg>
