<svg width="150" height="133" viewBox="0 0 150 133" fill="none" xmlns="http://www.w3.org/2000/svg">
<path fill-rule="evenodd" clip-rule="evenodd" d="M93.545 0.541808C89.9202 1.36403 88.2166 2.46407 83.7202 6.88481L79.5994 10.936L78.6012 10.5193C70.4157 7.10048 59.9807 9.68396 52.8982 16.8825L50.4244 19.3967L47.89 16.9166C45.4941 14.572 45.2859 14.4364 44.081 14.4364H42.8061L35.2268 22.0158L27.6475 29.5951L27.8032 30.9786L27.9594 32.362L55.5502 59.9544C70.725 75.1299 83.505 87.6972 83.9501 87.8814C85.772 88.6362 86.2352 88.2974 93.9856 80.5425L101.297 73.2271V71.7702C101.297 70.4047 101.201 70.2183 99.7756 68.7925L98.2548 67.2716L101.238 64.1636C106.118 59.0794 108.463 53.8263 108.463 47.9775V46.4682L126.819 64.8222C139.886 77.8886 145.436 83.2514 146.082 83.4367C148.295 84.071 150 82.7841 150 80.4807V79.0343L117.619 46.5802L85.237 14.126L88.1477 11.197C92.0117 7.30828 93.7748 6.38871 97.3423 6.40069C101.42 6.41455 102.227 6.92226 109.197 13.8613C116.001 20.636 117.39 21.307 119.126 18.6584C120.461 16.62 120.11 16.0281 113.801 9.68396C104.915 0.747363 100.808 -1.106 93.545 0.541808ZM74.5013 15.7637C79.0962 16.8466 81.3887 18.7336 93.509 31.4073C99.8468 38.0345 101.04 39.8055 101.882 43.8338C103.153 49.9117 101.486 54.9933 96.5583 60.0686L93.8602 62.8475L74.3235 43.3108L54.7868 23.774L57.5687 21.0573C62.6828 16.0625 68.3081 14.3039 74.5013 15.7637ZM69.1198 46.9052L93.9819 71.7684L89.5215 76.2288L85.061 80.6892L60.1267 55.7549L35.1924 30.8206L39.5745 26.4313C41.9847 24.017 44.0241 22.0416 44.1069 22.0416C44.19 22.0416 55.4457 33.2303 69.1198 46.9052ZM124.207 23.7729C121.673 25.7727 123.253 29.6198 126.452 29.2379C129.959 28.8193 129.825 23.695 126.297 23.3008C125.263 23.1851 124.827 23.2835 124.207 23.7729ZM133.431 32.2621C132.438 32.687 131.864 33.7583 131.864 35.19V36.5076L138.818 43.4617C145.741 50.3843 145.778 50.4157 147.031 50.4157C148.87 50.4157 150 49.2322 150 47.3062V45.907L143.184 39.0731C135.904 31.7746 135.398 31.4215 133.431 32.2621ZM32.2633 49.1659C31.9417 49.246 30.0329 50.5217 28.0219 52.001C26.0109 53.4803 23.9471 54.9814 23.4357 55.3371C20.8245 57.1522 21.9185 60.9462 25.0535 60.9462C26.3074 60.9462 26.9372 60.568 32.4767 56.4891C36.7825 53.3189 37.4628 50.6898 34.3174 49.3756C33.2622 48.9349 33.2143 48.93 32.2633 49.1659ZM38.9519 62.2911C32.0372 68.3174 31.4231 69.365 33.5569 71.4992C35.38 73.3222 36.3673 72.9193 41.6994 68.1758C46.6724 63.7525 47.2385 62.5671 45.3028 60.6309C43.6531 58.9813 42.3625 59.3186 38.9519 62.2911ZM9.88586 63.8637C7.39224 65.3063 5.12589 66.6209 4.8492 66.7845C0.802496 69.1819 5.139 73.7457 9.26545 71.4318C13.1212 69.2699 17.1106 66.7935 17.5876 66.2667C19.2785 64.398 17.688 61.2352 15.0592 61.2397C14.7076 61.2401 12.3795 62.421 9.88586 63.8637ZM52.4422 69.5507C50.439 70.4077 43.8174 78.0893 43.8174 79.5566C43.8174 81.4029 44.9778 82.589 46.7933 82.5988C48.6969 82.6092 56.6839 74.3859 56.6869 72.4127C56.6907 70.2389 54.4172 68.706 52.4422 69.5507ZM24.7536 74.9049C20.0696 78.7351 16.622 82.1042 16.4505 83.0185C15.8732 86.0954 19.2852 87.8324 21.7897 85.7364C26.3703 81.9038 29.5038 78.8853 29.7843 78.0361C30.7626 75.0715 27.2349 72.8759 24.7536 74.9049ZM63.2396 80.1602C61.7165 80.4601 55.2256 89.3544 55.2256 91.1415C55.2256 94.5768 58.8623 95.3885 61.0796 92.4486C67.6128 83.786 67.733 83.558 66.7603 81.6769C66.3585 80.9 64.7395 79.885 64.0835 79.9992C63.9577 80.0213 63.5781 80.0935 63.2396 80.1602ZM34.4791 88.2229C28.6891 94.3364 28.4184 94.7658 29.1852 96.6166C30.711 100.3 34.3383 98.4179 40.6203 90.6832C42.7537 88.0559 41.8031 85.2246 38.7871 85.2246H37.3187L34.4791 88.2229ZM6.48278 90.9573C-0.431959 96.9835 -1.046 98.0315 1.08818 100.165C2.91121 101.988 3.89818 101.585 9.23063 96.8423C14.2036 92.4186 14.7694 91.2332 12.8337 89.2975C11.184 87.6478 9.89373 87.9851 6.48278 90.9573ZM50.0702 98.519C48.9309 99.3172 43.8174 108.392 43.8174 109.616C43.8174 112.289 46.8514 113.699 48.7687 111.916C49.4861 111.25 52.9551 105.557 54.5771 102.384C55.9553 99.6887 52.559 96.7761 50.0702 98.519ZM22.5408 101.213C20.9619 101.851 14.2737 109.886 14.2737 111.145C14.2737 113.021 15.431 114.183 17.2975 114.183C19.2321 114.183 27.1398 106.008 27.1431 104.004C27.1469 101.813 24.7109 100.336 22.5408 101.213ZM5.06037 119.668C-0.198697 125.206 -0.850183 126.582 0.939158 128.372C3.06398 130.496 5.63435 128.95 11.0728 122.275C13.2212 119.637 12.2234 116.816 9.14227 116.816C7.78463 116.816 7.73633 116.85 5.06037 119.668ZM39.5963 117.767C38.6404 118.612 34.7086 127.677 34.654 129.161C34.5345 132.403 39.1181 133.458 40.4499 130.494C44.0185 122.551 44.8351 120.339 44.5764 119.309C44.0578 117.242 41.1917 116.355 39.5963 117.767Z" fill="#64842C"/>
</svg>
