<svg width="105" height="84" viewBox="0 0 105 84" fill="none" xmlns="http://www.w3.org/2000/svg">
<path fill-rule="evenodd" clip-rule="evenodd" d="M99.3604 0.46105C93.4352 3.18974 66.2245 16.4195 65.8814 16.7384C64.8692 17.6789 65.5774 19.3516 66.9875 19.3516C67.5294 19.3516 72.0383 17.2757 84.3608 11.3535C101.119 3.2992 101.719 3.03644 101.719 3.74125C101.719 4.17963 77.5595 78.6477 77.3487 78.859C77.1865 79.0218 46.7354 61.1524 46.8094 60.9379C46.8375 60.8568 55.7092 52.0326 66.5248 41.3284C77.34 30.6239 86.2795 21.7044 86.3897 21.5072C87.0079 20.4026 86.3824 18.7003 85.1728 18.195C84.0128 17.7102 83.5072 17.9667 78.6911 21.4828C76.1855 23.3119 65.1839 31.3612 54.2432 39.3698C43.3022 47.3787 33.7036 54.4016 32.913 54.9765L31.4755 56.0218L17.4596 53.2855C9.75074 51.7806 3.39299 50.4985 3.33104 50.4366C3.26909 50.3746 4.63987 49.643 6.37709 48.8109C43.4689 31.0462 62.3109 21.9194 62.6001 21.5768C63.3992 20.6305 62.6392 18.9416 61.4144 18.9416C60.9955 18.9416 10.8183 42.8537 2.60864 46.9658C0.45299 48.0455 0.00175269 48.6261 0.000702685 50.3216C-0.00139731 53.3288 -0.332672 53.2057 16.6542 56.498L30.745 59.229L36.2291 70.9898C39.2888 77.5515 41.8705 82.8346 42.0687 82.9406C43.0378 83.4593 44.7212 82.6023 49.3462 79.2344C50.3317 78.517 50.4997 77.4208 49.7408 76.6617C48.9596 75.8804 48.2036 76.0004 46.4501 77.1835C45.6143 77.7476 44.9034 78.2091 44.8701 78.2091C44.7633 78.2093 45.4205 64.5066 45.5326 64.3948C45.613 64.3147 55.8371 70.1986 56.134 70.4955C56.1626 70.5239 55.2543 71.1833 54.1161 71.9605C51.5268 73.729 51.1026 74.6929 52.4482 75.7513C53.2801 76.4057 53.7019 76.2587 56.5996 74.306C58.1114 73.2875 59.4601 72.4968 59.5969 72.5493C59.7339 72.6018 63.2915 74.6685 67.5034 77.1418C71.7152 79.615 75.4563 81.7898 75.8173 81.9746C77.2686 82.7175 79.4999 82.0505 80.2078 80.6619C81.1266 78.8598 105 4.78022 105 3.73154C105 0.907037 102.075 -0.789238 99.3604 0.46105ZM58.0864 44.9451L42.2422 60.6749L42.2359 61.9052C42.2259 63.8257 41.6999 74.312 41.6093 74.3992C41.366 74.6328 34.059 58.4174 34.2997 58.1777C34.6473 57.8317 73.6989 29.2211 73.828 29.2179C73.8845 29.2163 66.8007 36.2936 58.0864 44.9451Z" fill="black"/>
</svg>
