<svg width="105" height="105" viewBox="0 0 105 105" fill="none" xmlns="http://www.w3.org/2000/svg">
<path fill-rule="evenodd" clip-rule="evenodd" d="M67.9043 0.407171C60.2368 1.79506 49.8915 9.8725 52.5779 12.3737C53.2 12.9527 54.278 12.9239 54.855 12.3126C59.0641 7.85426 61.0486 6.31324 64.3646 4.92797C79.3561 -1.33444 96.7899 11.4814 94.9924 27.4433C94.7673 29.4422 93.9644 32.8921 93.5398 33.685C92.5884 35.4618 94.6264 37.4103 95.9945 36.0318C97.7544 34.259 98.9171 25.15 97.9631 20.6077C95.1084 7.01465 81.5905 -2.06995 67.9043 0.407171ZM49.1741 16.5298C48.505 17.1248 47.7353 19.7815 47.4016 22.6464C46.4092 31.1699 50.1234 40.3473 56.5955 45.3629L58.0492 46.4896L58.0618 48.1796L58.0743 49.8698H56.3774C54.49 49.8698 53.9054 50.1197 53.6784 51.0233C53.3139 52.4744 54.2551 53.1475 56.649 53.1475H58.2793L58.2921 55.0422C58.336 61.4412 58.5729 62.1329 60.7807 62.3102L62.1001 62.4159L62.331 63.5161C64.6104 74.3751 81.0318 74.3586 83.2884 63.4951L83.5233 62.3658H84.8054C86.9111 62.3658 86.9759 62.2336 87.2386 57.3856L87.4545 53.4L89.2835 53.2571C91.4377 53.0885 91.899 52.7859 91.899 51.5404C91.899 50.2568 91.391 49.96 89.3139 50.0303L87.5941 50.0885V48.28V46.4715L88.5679 45.7287C92.8064 42.4951 94.1108 39.5864 91.5445 39.0908C90.9234 38.971 90.7516 39.0892 88.777 40.9926C87.6191 42.1091 86.1969 43.3656 85.6164 43.7849C84.2982 44.7375 84.3142 44.6906 84.3142 47.6331V50.0746H83.3199C82.7734 50.0746 81.6083 50.1352 80.7311 50.2094L79.136 50.3442L79.2753 47.6997C79.4989 43.4472 79.776 40.1874 80.2509 36.2175L80.6957 32.5004L81.9967 32.4175C84.8933 32.2334 85.1202 29.1797 82.2375 29.1797C81.2997 29.1797 81.2383 29.1482 81.3357 28.7187C82.4036 23.9973 82.2538 23.034 80.4509 23.034C79.2703 23.034 79.0245 23.4556 78.3992 26.551L77.8476 29.282H72.8977C70.1751 29.282 67.8949 29.229 67.8301 29.164C67.7652 29.0992 67.4832 27.9219 67.2032 26.5476C66.5307 23.2482 66.4008 23.034 65.073 23.034C63.6217 23.034 63.3013 23.9226 63.834 26.469C64.3918 29.1357 64.406 29.0769 63.2045 29.0785C60.5267 29.0822 60.7033 31.9143 63.4044 32.2835C64.1208 32.3813 64.7508 32.5056 64.8049 32.5594C65.2027 32.9571 66.7096 49.6936 66.3937 50.2044C66.3842 50.2196 65.2467 50.1837 63.8655 50.1252L61.3543 50.0185L61.3451 47.742C61.3333 44.8862 61.232 44.673 59.1405 43.1079C51.955 37.7307 48.8476 27.8867 51.5265 18.9857C52.2084 16.7199 50.7141 15.16 49.1741 16.5298ZM77.2987 32.7531C77.3359 32.7906 77.2271 33.8224 77.0565 35.0462C76.6752 37.7839 76.1895 43.4598 76.0027 47.3602L75.8631 50.2794H72.835C69.2858 50.2794 69.5614 50.5214 69.5569 47.4013C69.5537 45.112 69.2551 41.0278 68.8164 37.2713C68.6453 35.8066 68.454 34.1473 68.3913 33.5838L68.2769 32.5596L72.7539 32.6226C75.2163 32.6572 77.2614 32.7159 77.2987 32.7531ZM84.0211 56.2203C83.9429 57.7412 83.8046 59.0609 83.7141 59.1526C83.5199 59.3498 62.0659 59.2536 61.8673 59.0546C61.7925 58.9798 61.6797 57.6892 61.6167 56.1868L61.5021 53.4548H72.8327H84.1633L84.0211 56.2203ZM80.0045 62.929C79.9956 63.6436 79.184 65.0587 78.167 66.1333C74.2071 70.3176 67.3008 68.6172 65.5695 63.0316L65.4265 62.5706H72.7177C79.527 62.5706 80.0087 62.5944 80.0045 62.929ZM38.8261 69.7185C37.7653 69.9067 37.3696 70.3601 37.3696 71.3867C37.3696 72.7127 37.797 72.8991 40.9206 72.935C45.3412 72.9859 47.7023 73.8832 50.3234 76.5092L51.8999 78.0886L56.1659 78.0938C66.9248 78.1066 72.2822 80.5922 71.4257 85.173C71.1937 86.4146 71.3501 86.3432 69.4485 86.0753C63.5745 85.248 48.6842 86.135 48.0329 87.3515C46.903 89.4612 48.2202 90.1343 52.3675 89.5666C56.5404 88.9953 66.4944 88.9405 70.1599 89.4686L72.5081 89.8071L75.3874 88.195C89.8245 80.1126 98.7316 79.0034 101.229 84.9774C101.752 86.2268 101.656 86.4736 100.589 86.6335C91.4682 88.0004 79.417 93.4167 71.1838 99.8498C69.1465 101.442 69.0017 101.518 68.2218 101.41C61.4097 100.465 58.8117 100.272 50.8786 100.123C44.2331 99.9987 44.1927 100 43.7548 100.438C43.1987 100.994 43.1756 102.095 43.7062 102.75L44.098 103.234L50.6249 103.37C58.5572 103.536 65.5963 104.106 67.9159 104.771C69.5372 105.236 69.994 105.087 72.0119 103.441C80.5847 96.4463 91.9114 91.3287 102.644 89.6007C104.911 89.2355 105.104 89.0089 104.966 86.8698C104.31 76.7004 93.7062 75.1623 78.1134 82.9751C76.4506 83.8082 75.0523 84.4899 75.0064 84.4899C74.9602 84.4899 74.8621 84.0059 74.7878 83.4143C74.0872 77.8287 67.9468 74.8641 57.0741 74.8623L53.5118 74.8618L52.1171 73.5473C49.0649 70.67 43.1171 68.9565 38.8261 69.7185ZM30.2966 72.1529C29.5073 72.5724 28.5417 73.1435 28.1513 73.422C27.4714 73.9068 27.3008 73.9296 24.1542 73.955C22.0555 73.9721 20.1345 74.1108 18.8411 74.3387C16.5884 74.7356 16.4685 74.6934 16.4627 73.5017C16.457 72.3257 15.8692 71.8849 14.3756 71.9363C9.21793 72.1138 0.966821 74.7818 0.463804 76.4348C-0.508906 79.6309 0.184088 99.0576 1.29193 99.6502C2.31056 100.195 11.3987 100.448 15.5527 100.048C19.4084 99.6757 19.6685 99.4772 19.4504 97.0732L19.3158 95.5889L20.3276 95.372C24.3995 94.4994 25.4407 94.7388 26.5396 96.7997C27.5441 98.6835 30.3956 102.575 31.1174 103.048C32.0017 103.627 38.7228 103.38 39.2329 102.75C40.6453 101.006 39.4512 100.059 35.8382 100.059H32.902L32.2297 99.2939C31.3019 98.2377 29.5732 95.5424 28.6753 93.7521C28.1471 92.6985 27.7629 92.1916 27.3693 92.0288C26.6057 91.7131 21.5611 91.7275 20.082 92.0498C19.4247 92.1929 18.8377 92.2609 18.7774 92.2005C18.4974 91.9208 16.8288 78.3324 17.0468 78.1072C17.5632 77.5738 23.9214 77.0759 27.1195 77.3187L28.452 77.4199L29.7844 76.4261C30.5173 75.8794 31.6456 75.1651 32.2916 74.839C33.6981 74.1284 34.182 73.4951 33.9888 72.617C33.6774 71.2 32.3932 71.0387 30.2966 72.1529ZM13.4848 76.7568C14.0104 82.2575 15.4693 93.644 15.9626 96.0947L16.0925 96.7397L14.0723 96.891C12.0463 97.0428 4.02376 96.9185 3.83746 96.7324C3.44963 96.3445 3.16073 82.6248 3.47115 79.339L3.59999 77.9776L5.02874 77.4176C7.25073 76.5462 11.7333 75.3631 13.1075 75.285C13.2523 75.2766 13.3977 75.8438 13.4848 76.7568ZM8.44071 89.7942C7.34126 90.6839 8.0639 92.6841 9.48479 92.6841C10.4124 92.6841 11.1298 91.9695 11.1298 91.0452C11.1298 89.6511 9.53464 88.909 8.44071 89.7942Z" fill="black"/>
</svg>
