<svg width="103" height="103" viewBox="0 0 103 103" fill="none" xmlns="http://www.w3.org/2000/svg">
<path fill-rule="evenodd" clip-rule="evenodd" d="M15.0968 2.78394C14.3542 5.58507 14.1743 5.65149 11.489 4.11481L9.61971 3.04512L6.33269 6.33241L3.0454 9.61944L4.11509 11.4887C5.65176 14.1741 5.58535 14.3539 2.78421 15.0965L0.6409 15.6645V20.3281V24.9917L2.78421 25.5597C5.58535 26.3024 5.65176 26.4822 4.11509 29.1675L3.0454 31.0368L6.33269 34.3238L9.61971 37.6111L11.489 36.5414C14.1743 35.0048 14.3542 35.0712 15.0968 37.8723L15.6648 40.0156H17.1763H18.6878V53.1406V66.2656L11.4588 66.2701C3.39768 66.2751 3.29609 66.2908 1.93293 67.7275C0.5884 69.1447 0.6409 68.4709 0.6409 84.3125C0.6409 100.154 0.5884 99.4803 1.93293 100.898C3.39033 102.433 2.33718 102.35 20.3284 102.35C38.3196 102.35 37.2665 102.433 38.7239 100.898C40.0684 99.4803 40.0159 100.154 40.0159 84.3125C40.0159 64.7912 40.9071 66.2774 29.198 66.2701L21.969 66.2656V53.1406V40.0156H23.4805H24.992L25.56 37.8723C26.3026 35.0712 26.4825 35.0048 29.1678 36.5414L31.0371 37.6111L34.3241 34.3238L37.6114 31.0368L36.5417 29.1675C35.005 26.4822 35.0715 26.3024 37.8726 25.5597L40.0159 24.9917V23.4802V21.9687H41.6565H43.2971L43.3016 26.7368C43.309 34.5824 43.8229 35.0938 51.6987 35.0938H56.4221V40.102V45.11L55.826 45.2409C52.7666 45.9129 50.634 50.429 51.8069 53.7528C52.4216 55.4958 54.372 57.4396 55.826 57.759L56.4221 57.89V66.9996V76.1094H61.344H66.2659V82.4734C66.2659 89.4919 66.3016 89.7297 67.5579 91.0538C69.0059 92.5799 68.1614 92.5067 84.3128 92.5067C100.464 92.5067 99.6197 92.5799 101.068 91.0538C102.412 89.6365 102.36 90.3104 102.36 74.4688C102.36 58.6271 102.412 59.301 101.068 57.8837C99.6197 56.3576 100.464 56.4308 84.3128 56.4308C64.8975 56.4308 66.2659 55.6701 66.2659 66.4641V72.8281H62.9846H59.7034V65.3589V57.89L60.2995 57.759C65.8842 56.5324 65.8842 46.4676 60.2995 45.2409L59.7034 45.11V40.102V35.0938H64.4268C72.3026 35.0938 72.8166 34.5824 72.8239 26.7368L72.8284 21.9687H76.0808H79.3331L79.772 23.3057C82.4745 31.5377 93.5696 32.726 97.8961 25.2471C99.176 23.034 99.4742 19.5558 98.5988 17.0469L98.1337 15.7139L100.09 13.7134L102.046 11.7131L100.768 10.4353L99.4908 9.1577L97.6743 10.9658L95.8578 12.7739L94.7275 12.051C89.1128 8.45919 81.8455 11.0346 79.772 17.3506L79.3331 18.6875H76.0808H72.8284L72.8239 13.9194C72.8184 8.02239 72.4215 6.92697 69.9125 5.88039C68.6457 5.35197 47.2202 5.41655 46.0657 5.95205C43.6513 7.0724 43.2971 8.0972 43.2971 13.9641V18.6875H41.6565H40.0159V17.176V15.6645L37.8726 15.0965C35.0715 14.3539 35.005 14.1741 36.5417 11.4887L37.6114 9.61944L34.3241 6.33241L31.0371 3.04512L29.1678 4.11481C26.4825 5.65149 26.3026 5.58507 25.56 2.78394L24.992 0.640625H20.3284H15.6648L15.0968 2.78394ZM22.756 5.8103C23.2277 7.53597 23.2692 7.60449 23.9908 7.83864C24.4016 7.97199 25.3117 8.35051 26.0134 8.67969L27.2894 9.27792L28.2693 8.7209C28.8082 8.4143 29.5319 7.99692 29.8771 7.79296L30.505 7.42257L31.8695 8.79965L33.234 10.1767L32.3071 11.7735L31.3799 13.3703L31.9776 14.6447C32.3065 15.3456 32.6845 16.2549 32.8179 16.6657C33.052 17.3871 33.1208 17.4291 34.8462 17.901L36.632 18.3893V20.3281V22.2669L34.8462 22.7552C33.1208 23.2272 33.052 23.2692 32.8179 23.9905C32.6845 24.4013 32.306 25.3114 31.9768 26.0131L31.3786 27.2891L31.9356 28.269C32.2422 28.8079 32.6596 29.5316 32.8636 29.8768L33.234 30.5047L31.8569 31.8692L30.4798 33.2337L28.883 32.3068L27.2862 31.3796L26.0118 31.9773C25.3109 32.3063 24.4016 32.6843 23.9908 32.8176C23.2695 33.0518 23.2275 33.1205 22.7555 34.8459L22.2672 36.6317H20.3284H18.3896L17.9013 34.8459C17.4293 33.1205 17.3873 33.0518 16.666 32.8176C16.2552 32.6843 15.3448 32.3057 14.6429 31.9766L13.3666 31.3778L11.8743 32.2398C11.0538 32.7139 10.329 33.1302 10.2641 33.1649C10.1993 33.1995 9.53335 32.6094 8.78444 31.8537L7.42285 30.4795L8.34974 28.8827L9.27689 27.2859L8.67918 26.0115C8.35026 25.3106 7.97226 24.4013 7.83891 23.9905C7.60476 23.2692 7.53599 23.2272 5.81058 22.7552L4.02479 22.2669V20.3281V18.3893L5.81058 17.901C7.53599 17.4291 7.60476 17.3871 7.83891 16.6657C7.97226 16.2549 8.35236 15.3414 8.68338 14.6355L9.28555 13.3519L8.89206 12.6873C8.67576 12.3216 8.25865 11.5995 7.96518 11.0826L7.43151 10.1429L8.80412 8.78285L10.177 7.42257L11.7738 8.34946L13.3706 9.27661L14.645 8.6789C15.3459 8.34999 16.2562 7.97172 16.6684 7.83785C17.3887 7.60396 17.4346 7.5302 17.8696 5.91215C18.1182 4.98658 18.3654 4.15681 18.419 4.06809C18.4723 3.97962 19.3603 3.93342 20.3922 3.96571L22.268 4.02451L22.756 5.8103ZM68.3979 9.12935C69.146 9.44172 69.5471 10.2476 69.5471 11.4378V12.125H58.0628H46.5784V11.4378C46.5784 10.2836 46.9821 9.44277 47.6827 9.13801C48.6338 8.72405 67.4091 8.71618 68.3979 9.12935ZM17.2033 10.8826C10.3902 13.0605 8.17124 21.8606 13.1052 27.1355C18.2583 32.6446 27.7427 30.4226 29.8469 23.2133C32.0845 15.5477 24.8082 8.45157 17.2033 10.8826ZM23.1568 14.5592C27.0505 16.5681 27.9034 21.7766 24.8403 24.84C20.9917 28.6882 14.3675 26.2404 14.0184 20.8408C13.6961 15.8559 18.8301 12.3266 23.1568 14.5592ZM92.1759 14.6586C93.3929 15.3719 93.4564 15.1931 91.1848 17.4551L89.2383 19.3934L88.2083 18.3788L87.1782 17.3642L85.9009 18.6416L84.6236 19.9189L86.9283 22.2236L89.2333 24.5286L92.2972 21.4697C95.7622 18.0102 95.7546 18.0116 95.5467 20.9085C94.9952 28.5895 83.4218 28.5276 82.9247 20.8408C82.5971 15.7777 87.9647 12.1906 92.1759 14.6586ZM69.5471 22.693C69.5471 30.8279 69.5002 31.1641 68.3081 31.5797C67.3734 31.9054 48.7522 31.9054 47.8174 31.5797C46.6254 31.1641 46.5784 30.8279 46.5784 22.693V15.4062H58.0628H69.5471V22.693ZM49.8596 20.3281V21.9687H51.5003H53.1409V20.3281V18.6875H51.5003H49.8596V20.3281ZM56.4221 20.3281V21.9687H61.344H66.2659V20.3281V18.6875H61.344H56.4221V20.3281ZM49.8596 26.8906V28.5312H58.0628H66.2659V26.8906V25.25H58.0628H49.8596V26.8906ZM59.654 48.833C62.3216 50.4594 61.181 54.5747 58.0628 54.5747C54.9445 54.5747 53.804 50.4594 56.4715 48.833C57.349 48.2978 58.7765 48.2978 59.654 48.833ZM97.9292 59.9887C98.6773 60.3011 99.0784 61.107 99.0784 62.2971V62.9844H84.3128H69.5471V62.2971C69.5471 61.1429 69.9509 60.3021 70.6515 59.9974C71.6078 59.5811 96.9343 59.5729 97.9292 59.9887ZM99.0784 76.7966C99.0784 88.3571 99.0674 88.4734 97.9292 88.9488C97.0267 89.326 71.8571 89.3748 70.7861 89.0015C69.5495 88.5705 69.5471 88.5474 69.5471 76.8336V66.2656H84.3128H99.0784V76.7966ZM35.5854 69.8325C36.3335 70.1449 36.7346 70.9507 36.7346 72.1409V72.8281H20.3284H3.92215V72.1409C3.92215 70.9867 4.32588 70.1459 5.02649 69.8411C5.98461 69.424 34.5887 69.4159 35.5854 69.8325ZM72.8284 74.4688V79.3906H77.7503H82.6721V74.4688V69.5469H77.7503H72.8284V74.4688ZM85.9534 71.1875V72.8281H90.8753H95.7971V71.1875V69.5469H90.8753H85.9534V71.1875ZM79.3909 74.4688V76.1094H77.7503H76.1096V74.4688V72.8281H77.7503H79.3909V74.4688ZM36.7346 86.6404C36.7346 98.2009 36.7236 98.3171 35.5854 98.7925C34.6814 99.1703 6.23504 99.2196 5.16115 98.8453C3.92451 98.4143 3.92215 98.3912 3.92215 86.6774V76.1094H20.3284H36.7346V86.6404ZM85.9534 77.75V79.3906H90.8753H95.7971V77.75V76.1094H90.8753H85.9534V77.75ZM7.2034 84.3125V89.2344H13.7659H20.3284V84.3125V79.3906H13.7659H7.2034V84.3125ZM23.6096 81.0312V82.6719H28.5315H33.4534V81.0312V79.3906H28.5315H23.6096V81.0312ZM17.0471 84.3125V85.9531H13.7659H10.4846V84.3125V82.6719H13.7659H17.0471V84.3125ZM72.8284 84.3125V85.9531H84.3128H95.7971V84.3125V82.6719H84.3128H72.8284V84.3125ZM23.6096 87.5937V89.2344H28.5315H33.4534V87.5937V85.9531H28.5315H23.6096V87.5937ZM7.2034 94.1562V95.7969H20.3284H33.4534V94.1562V92.5156H20.3284H7.2034V94.1562Z" fill="black"/>
</svg>
