<svg width="105" height="105" viewBox="0 0 105 105" fill="none" xmlns="http://www.w3.org/2000/svg">
<path fill-rule="evenodd" clip-rule="evenodd" d="M3.71666 3.13834C0.272361 6.52323 -0.138582 7.07983 0.032097 8.12941C0.0943292 8.51008 2.17031 12.1777 4.72104 16.4122C10.046 25.2526 9.32491 24.5627 13.2408 24.5651L15.863 24.5666L28.3089 37.1103L40.7548 49.6542L33.3019 57.0829L25.849 64.5117L24.5484 64.2242C14.9284 62.0976 4.3634 68.2225 1.05407 77.8452C-0.613857 82.6944 -0.144884 90.8426 1.8728 92.0691C3.38764 92.9902 3.47587 92.9346 8.57576 87.8674L13.2075 83.2654H15.154H17.1005L19.4049 85.5695L21.7094 87.8737V89.9176V91.9615L17.2142 96.44C12.5647 101.072 12.3643 101.348 12.717 102.621C13.4619 105.311 22.802 105.79 28.5948 103.436C37.3005 99.8969 42.8754 89.6144 40.917 80.7086L40.6022 79.2768L46.593 73.2822L52.5836 67.2876L53.864 68.6506L55.1446 70.0135L54.3492 70.9147C52.0805 73.4843 54.7557 76.3793 57.2665 74.0718L58.1454 73.2641L71.4019 87.6281C78.6933 95.5281 85.0782 102.292 85.5913 102.66C91.9668 107.225 101.006 104.858 104.291 97.7631C104.875 96.501 104.897 96.3405 104.96 92.9043C105.075 86.5647 105.94 87.6684 88.0221 71.2723C80.0957 64.019 73.6107 58.0317 73.6107 57.9673C73.6107 57.9029 73.9337 57.4937 74.3286 57.0578C76.5874 54.5649 73.5656 51.9343 71.0684 54.2196L70.2258 54.9906L68.8472 53.7292L67.4686 52.4678L73.4947 46.4623L79.5209 40.4564L80.7199 40.6839C90.0765 42.4598 99.3255 37.8392 103.367 29.37C104.785 26.399 104.998 25.2382 104.998 20.4725C104.998 14.3402 104.494 12.778 102.443 12.5476L101.484 12.4398L96.8246 17.0698L92.1646 21.6999L90.2753 21.7001H88.386L86.1336 19.3988L83.8811 17.0978L83.8746 15.0832L83.8677 13.0686L88.255 8.58652C92.8113 3.93161 93.0148 3.64284 92.6551 2.34402C92.0201 0.0508661 83.7834 -0.800265 78.5357 0.88498C68.6928 4.04602 62.332 14.6039 64.455 24.2567L64.7701 25.6885L57.2416 33.2054L49.7131 40.7222L37.1474 28.1947L24.5815 15.6673V12.9663C24.5815 9.19182 25.2718 9.89843 16.4146 4.60629C6.68096 -1.20999 7.98731 -1.05893 3.71666 3.13834ZM85.601 4.9791C85.271 5.34484 83.7766 6.89395 82.2804 8.42159L79.5598 11.1991V15.0091V18.8192L82.674 22.0947C86.4951 26.1136 86.2667 25.9953 90.1936 25.9953C94.1413 25.9953 93.8553 26.1362 97.7896 22.2525L101.146 18.9389L101.029 21.0865C100.455 31.5372 90.5303 38.9086 80.6057 36.255C79.6577 36.0015 78.6387 35.8473 78.3409 35.9125C77.9754 35.9926 71.0224 42.7896 56.9073 56.8654L36.0152 77.6996L36.137 78.795C36.2042 79.3975 36.399 80.4887 36.5703 81.2199C38.7683 90.6098 31.3469 100.154 21.5043 100.595L19.1452 100.701L22.5814 97.2251L26.0176 93.7496V89.9142V86.0785L22.8104 82.8415C18.8556 78.8497 19.093 78.9699 15.1787 78.9702C11.2292 78.9702 11.512 78.8304 7.60604 82.7103L4.27229 86.0219L4.27964 84.5925C4.33294 73.9383 14.5821 65.9925 24.7606 68.7145C25.7159 68.97 26.7208 69.1208 27.0254 69.054C27.3988 68.9721 34.202 62.323 48.4647 48.0998L69.3571 27.2659L69.235 26.1702C69.1681 25.5678 68.973 24.4766 68.8018 23.7454C66.5596 14.1672 74.3751 4.41936 84.3677 4.33061L86.201 4.31438L85.601 4.9791ZM20.2736 14.3743C20.2736 17.6961 19.3671 16.581 33.6677 30.8531L46.6303 43.7903L45.2688 45.1475L43.9076 46.5049L30.8084 33.3803L17.7092 20.2555L14.9174 20.262L12.1256 20.2683L8.48307 14.2114L4.84025 8.15454L6.5284 6.46249L8.21681 4.77044L14.2452 8.37708L20.2736 11.984V14.3743ZM70.2822 32.0412C69.5564 32.4339 69.3028 32.9329 69.3028 33.9681C69.3028 36.3175 72.7508 36.754 73.3747 34.4836C73.8896 32.6098 71.9958 31.1139 70.2822 32.0412ZM64.6868 37.7404C64.3484 37.8947 58.1404 43.9468 50.891 51.1899L37.7106 64.3593V65.206C37.7106 66.8177 39.2095 67.8497 40.6466 67.2282C41.0197 67.0667 46.962 61.2886 54.481 53.7755L67.6616 40.6059V39.7467C67.6616 38.1716 66.0814 37.1058 64.6868 37.7404ZM65.8152 56.8761L67.1486 58.0857L62.7398 62.4939C60.3151 64.9185 58.284 66.8918 58.2268 66.8784C58.1693 66.8653 57.5729 66.2634 56.9013 65.5411L55.68 64.2276L59.9766 59.9403C62.3396 57.5822 64.32 55.6561 64.3775 55.6598C64.4348 55.6634 65.0818 56.2109 65.8152 56.8761ZM84.4281 73.871C100.991 88.9966 100.544 88.5133 100.988 91.7772C101.8 97.743 95.0664 102.551 89.6117 99.9005C87.7823 99.0117 88.2208 99.4568 74.7296 84.7993C68.1025 77.5996 62.3499 71.3621 61.9457 70.938L61.211 70.167L65.7167 65.6712C68.1947 63.1985 70.2906 61.1755 70.3739 61.1755C70.4574 61.1755 76.7817 66.8884 84.4281 73.871ZM32.8463 69.3499C31.3136 70.2816 31.7511 72.7201 33.5311 73.1654C35.8418 73.7437 37.1605 70.346 35.0478 69.2567C34.2453 68.843 33.638 68.8687 32.8463 69.3499ZM72.0491 70.9073C71.007 71.42 70.5661 72.7897 71.1206 73.7927C71.2333 73.9967 75.6518 78.4665 80.9394 83.7256L90.5536 93.2876H91.4908C93.1017 93.2876 94.0717 91.8476 93.4397 90.3941C93.0605 89.5215 74.5474 71.0969 73.7512 70.7997C73.0002 70.5193 72.814 70.5311 72.0491 70.9073Z" fill="black"/>
</svg>
