<svg width="105" height="88" viewBox="0 0 105 88" fill="none" xmlns="http://www.w3.org/2000/svg">
<path fill-rule="evenodd" clip-rule="evenodd" d="M58.7206 0.312477C52.482 1.50711 47.3331 4.84611 38.8265 13.2136L34.4845 17.4844L33.1489 17.764C20.8773 20.3315 16.3623 35.5893 25.2243 44.5435C32.6688 52.0657 45.4701 50.4786 50.5162 41.4079C51.2596 40.0715 51.2422 40.0789 54.1402 39.8983C55.7727 39.7967 57.0994 39.8683 59.6254 40.1949C72.0378 41.7993 76.6664 41.1987 85.9274 36.7826C89.8471 34.9134 89.5187 34.9908 90.0075 35.8193C90.8797 37.2977 91.1097 37.346 97.2682 37.347C103.289 37.3478 103.442 37.3213 104.463 36.1088L105 35.4704V20.3859C105 1.21679 105.954 3.25274 97.0136 3.34671L91.2816 3.40735L90.5621 4.10481C90.1665 4.48833 89.787 5.05664 89.7187 5.36718L89.5945 5.93208L87.4021 5.35458C86.1962 5.03669 83.5022 4.29959 81.4156 3.71605C69.9007 0.496752 63.091 -0.524636 58.7206 0.312477ZM67.7328 4.44895C72.3853 5.03826 75.0893 5.66826 82.0309 7.77981C83.5536 8.24313 85.8607 8.88809 87.1578 9.21306L89.5163 9.80421L89.5693 20.3606L89.6224 30.9173L87.5184 31.8049C86.3613 32.2931 84.4918 33.1525 83.3638 33.7148C80.8389 34.9735 78.3745 35.9348 76.0837 36.5545C73.7663 37.1816 65.014 37.2465 61.6257 36.6619C58.7602 36.1676 54.4699 36.0156 52.0896 36.3241C45.295 37.2047 43.0662 36.8617 43.0662 34.9354C43.0662 32.0017 44.1193 31.3883 51.772 29.8642C63.9606 27.4371 68.3793 24.3955 67.5655 18.9933C66.4877 11.837 59.579 11.7149 47.9883 18.6471L45.63 20.0572L44.3994 19.3918C43.3859 18.8437 41.6563 18.1588 40.2348 17.7427C39.3103 17.4721 48.0319 9.55694 51.9352 7.12435C57.006 3.96385 59.9572 3.46405 67.7328 4.44895ZM101.718 20.3263V34.0666H97.3092H92.8999V20.3263V6.58596H97.3092H101.718V20.3263ZM62.7416 17.5514C64.2573 18.3352 64.0806 20.9725 62.42 22.348C60.7159 23.7598 53.7491 26.0684 51.1929 26.0684C50.6044 26.0684 48.7215 22.7428 49.1357 22.4352C53.3168 19.3293 60.9093 16.604 62.7416 17.5514ZM39.2316 21.0626C41.7867 21.6275 43.5465 22.625 45.5783 24.6596C47.704 26.7888 47.6948 26.752 46.1936 27.0854C42.4414 27.9188 40.3065 29.7878 39.4794 32.963C38.3354 37.3549 40.3952 40.1844 45.0139 40.5661L47.0155 40.7314L45.689 42.0644C40.6107 47.1685 32.8691 47.2598 27.886 42.2744C20.5045 34.8898 24.3082 23.046 34.7604 20.8694C35.7277 20.6678 37.8637 20.7602 39.2316 21.0626ZM51.064 48.9731C50.895 49.0327 46.7598 50.5573 41.8747 52.361L32.993 55.6404L31.0056 54.8206C26.2777 52.8705 21.3939 52.819 16.9697 54.6728C16.6991 54.7862 16.6109 54.7248 16.6109 54.4219C16.6109 53.7499 15.4716 52.399 14.5138 51.9355C13.6622 51.5231 13.3052 51.4981 8.29172 51.5015C2.28494 51.5052 2.07021 51.5538 0.736974 53.2088L0.102248 53.9969L0.0465984 67.5755L-0.00878906 81.1538L0.472636 82.0657C0.790261 82.6671 1.29242 83.1871 1.9471 83.5927L2.93961 84.208L7.91057 84.2723C14.1783 84.3534 15.647 83.9229 16.4229 81.7772C16.9235 80.3931 22.0892 81.2297 32.543 84.3881C44.5314 88.0098 47.2459 87.9557 58.5098 83.8715C66.5793 80.9454 86.8262 72.7176 87.8174 71.9616C90.7091 69.7561 90.3524 64.1493 87.1866 62.0543L86.3921 61.5285L86.6635 60.7686C87.3691 58.7927 86.7501 56.3859 85.1706 54.9621C83.221 53.2046 81.205 53.1296 77.2274 54.6665C74.6339 55.6687 74.4577 55.663 74.4417 54.5744C74.4213 53.2172 72.8426 51.2217 71.2642 50.5579C69.491 49.8118 68.2785 50.0313 62.7999 52.089C56.9983 54.2683 57.6276 54.1221 57.622 53.2926C57.6037 50.5592 53.7533 48.0232 51.064 48.9731ZM53.6614 52.7715C55.4787 54.4331 54.6629 55.1529 48.2744 57.5264L43.5481 59.2823L40.836 58.331L38.1238 57.38L44.4401 55.0458C52.6484 52.0124 52.3321 52.1182 52.8073 52.251C53.0327 52.314 53.4173 52.5481 53.6614 52.7715ZM70.1065 53.8412C71.0875 54.3484 71.4138 55.5427 70.8625 56.6087C70.5938 57.1282 55.6126 63.0715 54.6529 63.0392C54.54 63.0353 53.1354 62.5809 51.531 62.0291L48.6141 61.0258L58.6062 57.2957C68.9917 53.4186 69.1802 53.3621 70.1065 53.8412ZM13.2154 55.2351C13.699 55.9255 13.699 79.6783 13.2154 80.3684C12.8377 80.9081 4.0471 81.0982 3.52682 80.5781C3.10551 80.1566 3.17901 55.5257 3.60321 55.1015C4.19305 54.5119 12.7926 54.6313 13.2154 55.2351ZM28.3105 57.4498C30.3971 58.2273 30.5743 58.2895 43.9012 62.9368C55.6039 67.0177 55.2204 66.8536 55.7866 68.0204C56.9792 70.4785 55.3084 72.6142 52.1888 72.6191C51.1559 72.6207 49.7549 72.2207 43.5788 70.1603C39.4762 68.7914 35.8663 67.6994 35.445 67.6994C34.09 67.6994 33.3634 69.4022 34.2585 70.4808C34.6457 70.9475 49.3858 75.6733 51.2273 75.9211C53.9106 76.2823 56.005 75.6836 57.7291 74.0629C58.7671 73.0869 81.8605 64.3869 83.4182 64.385C85.136 64.3827 86.4002 65.5952 86.4249 67.2686C86.4527 69.125 86.7312 68.9657 75.3505 73.6004C46.9942 85.1483 46.9223 85.1611 33.4699 81.1123C26.0414 78.8766 23.4918 78.2923 19.5879 77.9311L16.8162 77.6746V68.0026V58.3302L18.6103 57.7808C23.0075 56.4344 25.3684 56.3539 28.3105 57.4498ZM82.4674 57.1513C83.1817 57.5207 83.7363 58.6531 83.5557 59.3729C83.2843 60.4544 82.4973 60.814 71.2642 64.9888C65.1734 67.2526 60.0286 69.1675 59.8312 69.2442C59.5286 69.3618 59.4724 69.2636 59.4724 68.6184C59.4721 68.1976 59.228 67.309 58.9296 66.6439C58.6311 65.9789 58.4235 65.4051 58.4683 65.3689C58.702 65.1786 81.1644 56.8568 81.477 56.8445C81.6802 56.8366 82.1256 56.9747 82.4674 57.1513Z" fill="black"/>
</svg>
