<svg width="150" height="125" viewBox="0 0 150 125" fill="none" xmlns="http://www.w3.org/2000/svg">
<path fill-rule="evenodd" clip-rule="evenodd" d="M53.3316 0.659475C46.8805 3.10765 45.0755 11.6362 49.988 16.4585C54.6869 21.0707 62.4295 19.9414 65.5726 14.1852C69.8095 6.42536 61.713 -2.52115 53.3316 0.659475ZM73.4436 0.484976C72.4606 1.01218 71.8908 2.36927 72.128 3.61781C72.8389 7.35898 78.516 6.48056 78.084 2.69604C77.8216 0.397911 75.589 -0.666126 73.4436 0.484976ZM84.2602 5.69624C82.2747 6.7988 82.3103 9.87569 84.3203 10.9019C86.9728 12.2557 89.7493 9.8631 88.6198 7.19634C87.8924 5.47876 85.8919 4.7904 84.2602 5.69624ZM58.5488 6.57725C61.2134 7.93731 61.1361 11.4669 58.413 12.7681C55.5896 14.117 52.4803 11.3743 53.5853 8.50897C54.3596 6.50019 56.6511 5.60843 58.5488 6.57725ZM137.357 9.12027C126.858 12.9893 129.225 27.9313 140.337 27.9417C152.923 27.9539 153.361 9.32108 140.787 8.81944C139.289 8.75942 138.038 8.86945 137.357 9.12027ZM88.8109 14.9499C85.6085 15.8372 82.3186 17.8082 80.5946 19.8729C79.8 20.8243 79.6919 20.8658 78.7397 20.5872C70.913 18.298 60.1136 24.6162 58.6449 32.3438C58.5049 33.08 58.3052 33.3367 57.8721 33.3367C54.4951 33.3367 43.9326 38.9018 37.5698 44.0342L35.3417 45.831L23.3333 43.3084C8.1841 40.1259 9.31314 39.8755 7.78962 46.7565C6.65683 51.8726 6.6542 52.8088 7.76898 53.9095C10.0289 56.1402 12.4424 54.6408 13.353 50.441C13.6776 48.9435 13.9779 47.6924 14.0196 47.6605C14.0616 47.6286 18.9125 48.6234 24.7991 49.8712C38.5775 52.791 36.4925 52.9966 42.2934 48.1451C48.4551 42.9927 53.699 40.3023 59.6264 39.253C63.4403 38.5776 99.8062 39.5302 101.583 40.3515C104.495 41.6983 105.37 45.8351 103.172 47.8594C101.745 49.1732 101.18 49.2873 88.9644 50.734C74.7869 52.4127 74.1796 52.6261 74.767 55.7175C75.1521 57.744 74.0392 57.4247 104.554 64.2638L132.819 70.5984L133.773 71.6265C136.203 74.2425 134.542 78.2001 131.016 78.2004C130.375 78.2004 120.879 76.3161 109.915 74.0132C86.6144 69.1194 87.8196 69.3373 86.6617 69.8108C84.827 70.5606 84.318 73.21 85.7192 74.7164C86.5097 75.5663 87.0303 75.6889 112.184 80.9494C140.381 86.8465 139.543 86.6094 140.743 89.0249C141.498 90.5436 141.145 91.8869 139.686 93.0473C137.779 94.5648 137.486 94.5296 119.515 90.6366C104.329 87.347 103.081 87.1203 100.871 87.2518L98.5012 87.3922L97.6938 85.5627C94.4245 78.1552 83.3249 77.3031 79.0497 84.1312L78.4518 85.0859L76.917 84.2701C71.5939 81.4407 64.7675 83.5325 62.1608 88.7919L61.3939 90.3387L60.2506 89.7626C52.8943 86.0584 46.1614 89.381 44.151 97.7073L43.3748 100.922L39.5771 97.1586C37.4879 95.0891 34.8196 92.13 33.647 90.5825C30.9832 87.0665 32.7747 87.7627 18.8562 84.834C12.2667 83.4476 6.80659 82.245 6.72252 82.1624C6.63844 82.0794 6.7852 80.9694 7.04832 79.6961C7.936 75.3996 4.90585 72.7539 2.22327 75.4833C0.720774 77.0123 -0.651106 84.9548 0.331543 86.4352C0.948233 87.3644 0.229826 87.174 14.0943 90.0816C20.8688 91.5024 26.6765 92.7261 26.9997 92.8009C27.3232 92.8758 28.6707 94.2851 29.9946 95.9323C32.9283 99.5831 37.8719 104.389 41.1918 106.818C42.7221 107.937 43.8718 109.026 44.2261 109.691C46.5581 114.069 53.0136 116.243 57.8972 114.296L59.7229 113.568L61.1053 114.933C64.1899 117.977 69.2837 118.984 73.1035 117.304L74.6368 116.63L75.9317 117.945C79.0794 121.142 84.0474 122.049 88.2817 120.201L89.6096 119.621L90.2522 120.478C92.6214 123.642 98.6441 125.212 102.665 123.715L104.12 123.173L108.811 124.153C119.172 126.317 124.94 123.114 124.94 115.195V112.681L126.636 112.386C131.496 111.54 134.772 107.719 135.006 102.621L135.114 100.269L137.363 100.14C147.345 99.5701 150.949 87.9879 142.929 82.2539L141.838 81.4733L143.454 79.9091C153.922 69.7822 148.403 52.0304 133.795 48.8383L132.975 48.659L133.156 46.2801C134.083 34.1414 122.869 23.4451 110.985 25.1323L109.052 25.4065L107.982 23.3658C104.447 16.6248 96.0576 12.9422 88.8109 14.9499ZM142.082 15.2859C144.768 16.852 144.284 20.9255 141.315 21.7342C138.307 22.5545 135.707 19.2149 137.292 16.5667C138.282 14.9113 140.447 14.3323 142.082 15.2859ZM122.381 16.7108C120.293 17.8293 120.522 21.1414 122.75 22.0521C125.92 23.3484 128.577 19.3464 126.034 17.1043C124.955 16.1517 123.681 16.0143 122.381 16.7108ZM96.3853 21.0433C99.8858 22.2492 102.669 25.3324 103.495 28.9191C104.284 32.3472 105.087 32.6306 110.646 31.4454C120.873 29.2647 130.129 40.2467 126.095 49.7763C124.8 52.8358 126.101 54.4686 129.956 54.6219C138.688 54.9695 144.535 62.517 142.13 70.3346C141.478 72.4527 140.921 73.2437 140.921 72.0511C140.921 71.0156 139.56 68.5363 138.274 67.2281C136.21 65.1286 135.454 64.9044 115.101 60.3511C104.545 57.99 96.305 56.0183 96.7888 55.9698C100.188 55.6293 103.268 55.0083 104.646 54.3859C111.713 51.192 112.676 41.0766 106.391 36.0357C103.562 33.7658 103.167 33.7158 85.0593 33.323C76.3502 33.1345 68.2601 32.8973 67.0811 32.7966L64.9375 32.6132L66.0594 31.0297C68.9624 26.9329 74.0194 25.2761 78.4946 26.9547C81.533 28.0947 82.5014 27.7998 84.4164 25.1509C87.2183 21.2748 92.1477 19.5832 96.3853 21.0433ZM6.11521 61.6104C5.03497 61.8253 3.97951 63.3232 3.97951 64.641C3.97951 68.0421 9.17501 68.6315 10.0154 65.3253C10.575 63.1253 8.48851 61.1377 6.11521 61.6104ZM89.7744 85.9851C91.2007 86.6246 92.1608 87.7449 92.4112 89.0616C92.6751 90.4517 88.2043 111.883 87.4064 113.052C85.4336 115.941 81.1663 115.623 79.6202 112.47L78.978 111.161L81.3539 99.725C83.9476 87.241 84.0493 86.9535 86.2034 85.9877C87.7078 85.3134 88.2749 85.313 89.7744 85.9851ZM73.1092 89.195C73.7863 89.2024 75.8086 91.2738 76.0777 92.2359C76.4152 93.4426 73.2886 108.88 72.4512 110.142C70.3973 113.235 65.4469 112.243 64.3655 108.52C64.0927 107.582 67.0158 92.935 67.7594 91.5139C68.5255 90.049 70.844 88.7534 72.1569 89.0561C72.4797 89.1302 72.908 89.1928 73.1092 89.195ZM104.271 93.7872C105.677 94.5244 106.612 95.9627 106.612 97.3861C106.612 98.931 103.172 115.128 102.62 116.181C100.926 119.415 95.3621 118.491 94.3311 114.804C94.0098 113.656 97.4911 96.5988 98.3367 95.1783C99.4023 93.3874 102.24 92.722 104.271 93.7872ZM57.2809 95.1442C59.4519 96.4228 59.7526 98.0959 58.6824 102.94C57.6326 107.692 56.6631 108.878 53.8296 108.88C49.6633 108.882 48.5624 106.577 49.8724 100.597C51.1227 94.8894 53.6682 93.0158 57.2809 95.1442ZM119.955 97.1597C123.18 97.8758 126.251 98.6794 126.779 98.9451C130.384 100.759 129.011 106.395 124.972 106.363C123.965 106.355 112.262 104.041 111.931 103.785C111.872 103.74 112.046 102.722 112.316 101.524C112.586 100.325 112.807 98.4938 112.807 97.4546C112.807 95.6592 112.839 95.5722 113.448 95.7111C113.801 95.7919 116.729 96.4435 119.955 97.1597ZM113.497 110.617C118.276 111.587 120.139 114.009 118.343 116.916C117.1 118.928 115.707 119.301 112.13 118.578C108.455 117.836 108.654 117.922 108.924 117.199C109.057 116.843 109.471 115.086 109.843 113.295C110.215 111.504 110.549 110.039 110.586 110.039C110.623 110.039 111.933 110.299 113.497 110.617Z" fill="#64842C"/>
</svg>
