<svg width="150" height="154" viewBox="0 0 150 154" fill="none" xmlns="http://www.w3.org/2000/svg">
<path fill-rule="evenodd" clip-rule="evenodd" d="M69.0727 0.554625C61.4153 2.58868 56.8217 11.1593 59.3875 18.6253C64.6223 33.8585 87.0236 30.3124 87.0236 14.2502C87.0236 4.43979 78.6108 -1.97884 69.0727 0.554625ZM76.3937 6.24321C81.9707 8.80658 83.521 15.4133 79.5819 19.8304C75.3186 24.6112 67.7248 23.5578 65.0123 17.809C61.6714 10.7266 69.2945 2.97971 76.3937 6.24321ZM91.8118 6.95331C89.5459 9.18981 91.1543 11.22 95.6596 11.8108C122.566 15.3384 144.497 39.6147 144.497 65.8714C144.497 68.6381 145.295 69.7943 147.207 69.7943C149.958 69.7943 150.468 67.8392 149.637 60.4807C146.537 33.0674 125.731 11.3543 98.0444 6.64074C93.7728 5.9133 92.8162 5.96142 91.8118 6.95331ZM5.74692 11.34C-3.44594 14.718 -1.00883 28.2801 8.79144 28.2801C20.2352 28.2801 20.7306 11.6136 9.30618 10.9763C7.90909 10.8983 6.5792 11.0344 5.74692 11.34ZM36.2413 11.3166C29.728 13.4586 25.7704 19.494 26.7727 25.754C27.0208 27.3012 26.9844 27.4239 26.171 27.7898C23.4295 29.0227 20.356 32.8133 19.6102 35.8818L19.2097 37.5304L16.9842 37.7069C5.27346 38.6346 0.58941 54.2741 9.75724 61.8376L11.2729 63.0883L10.5895 64.8327C8.56306 70.0054 10.6949 77.9006 14.992 81.1359C18.8096 84.0101 21.7785 80.1644 18.4165 76.7007C15.5239 73.7211 14.519 69.5407 15.9227 66.3227C16.4713 65.0651 16.4954 65.053 18.467 65.0486C25.6386 65.0343 32.816 59.0956 29.4425 55.9674C28.1052 54.7275 26.7806 54.9907 24.8213 56.8843C20.3621 61.1943 13.7004 60.1482 11.1473 54.7371C8.26177 48.6197 13.1272 42.5197 20.3604 43.1874C23.6552 43.4912 24.2073 43.0456 24.5108 39.838C24.8924 35.8024 26.8539 33.2282 30.6244 31.8141C33.3905 30.7767 33.9087 29.588 32.7646 26.9076C29.2616 18.6998 40.6983 12.361 46.1896 19.4671L47.0439 20.5722L43.691 23.9311C38.1681 29.464 31.6091 39.0204 31.6091 41.5339C31.6091 45.2309 35.5013 45.2557 37.4544 41.5712C40.8964 35.0772 45.974 28.8978 51.8276 24.0784C55.4712 21.0785 55.6275 20.8951 55.6275 19.6319C55.6275 17.8237 54.6468 16.8799 52.897 17.0048C51.6958 17.0906 51.4407 16.9393 49.8064 15.1745C46.483 11.585 40.5525 9.89817 36.2413 11.3166ZM10.6383 16.8348C12.7526 18.2962 12.5892 21.3976 10.3374 22.5473C8.14757 23.6649 5.53171 22.0591 5.53171 19.5972C5.53171 16.9792 8.51387 15.3661 10.6383 16.8348ZM48.6807 39.4674C39.5867 42.9095 42.1218 56.4325 51.85 56.3727C63.3113 56.3025 63.859 39.6204 52.4174 39.0937C50.8517 39.0217 49.5016 39.1565 48.6807 39.4674ZM125.478 39.7661C124.932 40.3049 124.598 41.1446 124.434 42.391C121.918 61.5307 105.589 79.5861 82.9769 88.2343C79.4312 89.5903 78.96 90.0243 78.96 91.9313C78.96 94.5068 80.7839 95.0006 84.6985 93.4855C105.755 85.3345 121.264 70.6904 127.362 53.1989C128.888 48.8213 128.868 48.8204 130.102 53.3368C131.255 57.5549 131.104 61.3391 129.598 65.9495C125.844 77.4359 126.074 78.3242 135.311 88.0271C138.79 91.6821 138.786 91.6725 136.862 91.989C129.172 93.254 127.91 95.0518 130.226 101.447L131.396 104.679H129.076C125.245 104.679 123.909 105.446 123.909 107.646C123.909 109.794 124.815 110.098 131.223 110.098C139.341 110.098 139.603 109.721 136.583 102.391C135.627 100.072 134.894 98.1328 134.953 98.0812C135.012 98.0296 136.509 97.655 138.279 97.2488C147.738 95.0769 147.92 93.1768 139.515 84.3578C131.796 76.2602 131.892 76.5658 134.6 68.5939L136.09 64.2063V58.9565C136.09 48.0072 129.395 35.9 125.478 39.7661ZM53.786 44.9934C55.978 46.7461 55.6974 49.3975 53.1838 50.6802C50.434 52.0839 47.3978 48.7493 48.9952 46.0802C49.997 44.4064 52.3766 43.8667 53.786 44.9934ZM104.749 49.5258C97.9259 57.5133 93.7908 60.9931 85.1065 66.0557C76.9866 70.7888 75.7165 71.6359 73.2069 73.9886C68.8518 78.0719 65.6913 83.5012 63.9675 89.8596C63.3882 91.9968 62.819 128.967 63.3342 130.994C63.7422 132.599 66.203 133.144 67.8087 131.985C68.4772 131.503 68.4996 130.988 68.6845 112.073C68.8685 93.2657 68.8984 92.5777 69.6362 90.176C71.9345 82.6949 76.0692 77.7012 83.4661 73.471C101.815 62.9786 113.484 51.4454 108.444 48.7832C107.17 48.1099 105.707 48.4043 104.749 49.5258ZM26.5184 67.0298C25.8789 67.6606 25.4371 73.3929 25.434 81.1004C25.4331 83.1284 25.2759 84.0236 24.7791 84.826C17.0752 97.2744 34.3181 110.471 44.8804 100.21C54.0504 91.3023 45.1035 75.7278 32.7181 79.0373L30.9103 79.5202L31.0026 73.614C31.0935 67.7655 31.0865 67.7018 30.2845 67.0575C29.2519 66.2291 27.3436 66.2148 26.5184 67.0298ZM38.6429 84.6556C43.6054 86.9026 44.7095 92.5222 40.9223 96.26C37.0306 100.101 30.9868 98.7622 28.9963 93.6173C26.8407 88.0466 33.1626 82.1738 38.6429 84.6556ZM14.8699 101.717C10.2079 103.192 7.85331 109.361 10.1688 114.033C14.1712 122.108 26.777 119.124 26.7942 110.098C26.806 103.866 20.9932 99.781 14.8699 101.717ZM20.3125 107.701C22.6877 110.046 20.1614 114.322 17.0831 113.167C13.5717 111.85 14.346 106.711 18.0554 106.711C18.9839 106.711 19.5698 106.968 20.3125 107.701ZM128.15 113.935C125.61 115.788 123.58 118.004 123.52 118.989C123.495 119.408 123.51 120.927 123.555 122.366C123.599 123.805 123.528 125.9 123.396 127.023L123.156 129.064L121.731 129.063C118.618 129.061 98.0352 125.856 85.533 123.428L79.2393 122.205L78.3275 122.874C77.6463 123.375 77.3894 123.894 77.3112 124.93C77.1241 127.417 77.6731 127.628 90.1116 129.86C93.3819 130.447 94.559 130.786 94.5229 131.132C94.4957 131.392 93.9283 133.205 93.262 135.161C90.6483 142.832 89.3641 150.663 90.4994 152.009C92.7679 154.7 94.8927 152.968 95.7975 147.691C96.5801 143.123 98.0761 137.649 99.4534 134.313C100.627 131.471 99.7143 131.575 110.013 133.105C118.544 134.373 124.439 134.77 125.896 134.174C127.978 133.322 129.036 129.718 129.049 123.426C129.057 119.984 128.876 120.286 132.614 117.45C136.626 114.404 132.241 110.951 128.15 113.935ZM26.1753 121.557C25.235 122.486 24.6021 149.652 25.4775 151.548C26.2562 153.235 29.0723 153.494 30.0526 151.968C30.4176 151.4 30.5405 148.176 30.6332 136.741L30.7514 122.234L29.941 121.585C28.9089 120.757 27.0002 120.743 26.1753 121.557Z" fill="#64842C"/>
</svg>
