<svg width="150" height="149" viewBox="0 0 150 149" fill="none" xmlns="http://www.w3.org/2000/svg">
<path fill-rule="evenodd" clip-rule="evenodd" d="M86.4066 0.691826C83.3944 1.65413 81.6715 2.7538 78.7149 5.6011C75.3021 8.88715 74.9026 9.88649 76.2687 11.7163C79.4024 15.9136 79.0225 17.3554 73.26 23.1422C66.0814 30.3511 64.3274 33.7864 64.3251 40.6428C64.3221 48.1391 65.4895 50.0941 76.5242 61.0753L85.2839 69.7923L84.0137 70.2584C81.6137 71.1389 78.7407 71.6162 74.218 71.885C66.2607 72.3582 60.649 74.198 54.7563 78.2653C50.9324 80.9045 2.00784 129.406 0.939892 131.617C-0.322741 134.229 -0.311488 139.175 0.963149 141.741C3.74724 147.347 11.1858 149.942 16.8053 147.268C19.9525 145.771 34.2421 131.453 34.2421 129.797C34.2421 128.236 33.5995 127.255 32.2979 126.831C30.4745 126.237 30.0266 126.563 22.3735 134.065C14.5321 141.751 13.9732 142.175 11.6768 142.175C7.42711 142.175 4.7473 137.843 6.68176 134.1C7.5734 132.375 56.8574 84.2413 59.491 82.5233C63.8367 79.6886 68.3306 78.3445 74.7788 77.9513C81.0274 77.5703 83.771 77.0238 87.9295 75.331C93.6842 72.9887 94.76 72.0631 115.936 51.2308L134.768 32.7034L138.723 36.5985L142.677 40.4936L121.502 61.4207C93.7731 88.8251 94.248 88.4949 81.4885 89.2483C69.9004 89.9322 64.6432 92.5444 53.9795 102.916C46.3054 110.38 45.6677 111.496 47.8974 113.564C49.797 115.325 50.3859 114.991 57.5656 108.073C68.2754 97.755 71.7895 95.9167 81.9637 95.3091C97.0114 94.4109 96.6344 94.6667 126.775 64.8845L150 41.9362V40.5088V39.0815L143.479 32.609C134.569 23.7642 134.757 23.8305 130.438 28.0129L128.313 30.0708L119.73 21.6167C113.385 15.3674 110.959 13.154 110.426 13.1292C109.204 13.0729 108.557 13.194 107.915 13.5998C107.326 13.9719 107.282 13.9205 106.95 12.4583C104.956 3.65983 94.9869 -2.04958 86.4066 0.691826ZM94.9029 6.8859C99.7835 8.6613 102.358 14.5814 100.462 19.671C99.8488 21.3194 99.1331 22.0832 86.2393 34.8487L72.662 48.2906L71.7809 46.4193C68.6592 39.7916 70.2028 34.9653 77.9271 27.2009C84.3851 20.7095 85.6402 17.2036 83.4814 11.6859L82.8708 10.1253L84.2722 8.85087C87.2963 6.10132 90.9106 5.433 94.9029 6.8859ZM119.891 38.3991L115.865 42.3801L108.756 35.3678L101.647 28.355L105.673 24.3736L109.699 20.3926L116.807 27.405L123.916 34.4177L119.891 38.3991ZM104.429 39.7742L111.457 46.7155L107.507 50.6225L103.557 54.5294L96.4476 47.5167L89.3388 40.5044L93.2168 36.6685C95.3497 34.5587 97.1637 32.8326 97.2477 32.8326C97.3318 32.8326 100.563 35.9565 104.429 39.7742ZM95.0349 62.8866L91.037 66.7621L83.962 59.7786L76.8869 52.7951L80.8376 48.8878L84.7883 44.9801L91.911 51.9958L99.0333 59.0111L95.0349 62.8866ZM38.4903 118.286C37.6568 119.108 37.3278 120.187 37.5926 121.228C38.4366 124.548 43.62 123.904 43.62 120.48C43.62 117.936 40.2878 116.511 38.4903 118.286Z" fill="#64842C"/>
</svg>
