<svg width="150" height="149" viewBox="0 0 150 149" fill="none" xmlns="http://www.w3.org/2000/svg">
<path fill-rule="evenodd" clip-rule="evenodd" d="M123.229 1.67149C114.956 6.59919 108.018 7.58451 96.3656 5.48696C80.6379 2.6557 70.3991 2.26424 68.9556 4.43874C68.1582 5.6394 68.3423 7.47018 69.3492 8.35818L70.2248 9.13001L76.7791 9.29022C83.4879 9.45376 84.1322 9.52924 94.7548 11.3963C107.346 13.6089 116.243 12.6665 124.113 8.28566L125.65 7.43022L125.964 8.24607C132.068 24.0681 128.98 40.9806 117.587 54.1208L115.612 56.3982L107.673 56.2443C87.8294 55.8595 75.7423 51.7828 60.9749 40.4944C56.9434 37.413 56.7841 37.436 52.5992 41.6987C45.4058 49.0267 38.453 53.6572 31.992 55.4229L29.8497 56.0082L30.0341 53.6365C31.4961 34.8171 36.3868 23.8931 46.4715 16.923C49.5794 14.7751 50.3872 12.6543 48.679 11.1284C47.0502 9.67354 45.5909 9.93661 42.2559 12.2858C31.0879 20.1516 25.2098 33.3197 23.8738 53.4645L23.6894 56.2417L21.2262 56.8418C7.9684 60.0723 3.99158 76.1482 14.0965 85.6617L15.75 87.2187L16.2485 94.9629C17.1636 109.175 16.7542 108.162 28.1764 124.492L35.745 135.312L35.7447 140.781C35.7447 146.822 35.9036 147.334 37.9357 147.837C41.1111 148.624 41.7483 147.227 41.7483 139.479V133.067L33.5784 121.375C25.0242 109.133 23.9919 107.401 23.3059 104.137C22.7998 101.729 21.5771 83.7851 21.8387 82.6088C22.4805 79.725 25.9437 79.7809 27.3408 82.6976C28.4073 84.9239 33.4022 103.234 33.4022 104.917C33.4018 108.004 34.1317 109.268 38.8852 114.418C44.0308 119.993 45.4129 120.648 47.3156 118.416C48.9841 116.459 48.6467 115.769 43.157 109.902C39.1697 105.641 38.757 104.489 40.5754 102.694C42.4253 100.868 43.7047 101.566 49.4932 107.554C58.6759 117.053 59.1899 118.474 59.4418 135.046L59.6123 146.271L60.569 147.114C61.9368 148.32 63.305 148.272 64.6204 146.974L65.616 145.991V137.688V129.385L66.5677 129.577C69.6704 130.204 72.1782 130.365 74.3283 130.075C75.5766 129.907 77.0261 129.683 77.5498 129.577L78.5016 129.385V137.817V146.249L79.2085 146.947C80.594 148.314 82.7562 148.203 83.8897 146.706C84.4831 145.922 84.5112 145.488 84.6762 134.568C84.9266 117.971 85.7213 115.978 96.1429 105.826C100.597 101.487 101.428 101.13 103.35 102.726C105.428 104.453 105.039 105.378 99.9267 110.864C95.0967 116.047 94.5723 118.166 97.8545 119.239C99.7633 119.863 100.231 119.56 104.731 114.785C109.675 109.538 110.439 108.271 110.558 105.116C110.629 103.244 114.937 87.0133 116.335 83.3514C118.101 78.7249 122.243 79.5685 122.168 84.5395C122.097 89.1353 120.963 103.093 120.525 104.742C119.696 107.864 118.513 109.804 110.391 121.363L102.369 132.781L102.28 139.115C102.182 146.041 102.315 146.824 103.714 147.537C105.111 148.25 106.264 148.073 107.377 146.974L108.373 145.991L108.377 140.543L108.381 135.094L113.545 127.723C127.422 107.917 126.744 109.457 127.689 95.6007L128.254 87.3034L130.119 85.436C136.705 78.8378 137.181 67.7236 131.15 61.3596C129.499 59.6172 125.522 57.1908 124.317 57.1911C123.54 57.1911 123.579 56.5791 124.421 55.5235C135.232 41.9866 138.219 22.594 131.959 6.59438C129.087 -0.745363 128.163 -1.2667 123.229 1.67149ZM57.1233 5.52729C56.1194 6.01976 55.2659 7.8091 55.5107 8.90801C56.0044 11.1273 59.0291 11.9946 60.66 10.3847C63.1153 7.96117 60.232 4.0014 57.1233 5.52729ZM63.4902 49.8384C76.465 58.4517 90.7923 62.3941 109.121 62.3941H114.23V68.7537C114.23 72.2513 114.197 75.1115 114.157 75.11C114.116 75.1081 113.436 74.9131 112.646 74.6763C109.023 73.5915 104.775 74.323 101.804 76.543C99.9608 77.9198 99.8915 77.9446 98.6552 77.663C92.2501 76.2041 85.8221 80.0281 83.9403 86.4165C83.4875 87.9543 83.4039 88.0456 81.8812 88.6684C78.1807 90.1824 75.2981 94.4696 75.2838 98.4808C75.2808 99.2445 75.0008 99.7137 73.9422 100.729C68.5931 105.861 70.7788 115.895 77.9419 119.09L79.4117 119.746L79.2153 120.916C78.9117 122.727 78.6886 122.94 76.5478 123.463C72.628 124.421 70.446 124.374 66.6007 123.247C65.1148 122.811 65.0938 122.789 64.8948 121.434C64.5821 119.306 63.0666 115.075 61.797 112.786L60.6469 110.712L61.6332 109.266C66.3657 102.324 64.3805 92.1556 57.6867 89.0513C56.0025 88.2702 56.0006 88.268 55.5321 86.3947C54.4356 82.0087 50.4925 78.0134 46.5382 77.2812C45.5598 77.0999 45.4845 76.9966 44.8855 75.0182C43.2631 69.6584 38.4462 66.4649 32.4898 66.8001L29.8876 66.9466L29.888 64.5634V62.1802L32.5685 61.5631C39.4992 59.9676 47.292 55.3533 54.4877 48.5849L57.5626 45.6922L58.8802 46.6727C59.6052 47.2122 61.6796 48.6367 63.4902 49.8384ZM22.8313 72.9492C22.118 74.1972 21.5954 74.7178 20.5144 75.2587C19.7463 75.6428 18.516 76.6362 17.7798 77.4669L16.4416 78.9769L15.8617 77.6415C13.015 71.0866 15.371 65.1569 21.6517 63.0697L23.5915 62.4252L23.6721 66.8815L23.7527 71.3382L22.8313 72.9492ZM123.209 63.3276C128.352 65.2664 130.596 71.3726 128.31 77.2086C127.548 79.1541 127.471 79.183 126.6 77.8554C125.702 76.4871 123.814 75.1903 121.936 74.6512L120.38 74.2046V68.444C120.38 61.8328 120.184 62.1873 123.209 63.3276ZM35.6772 73.2478C38.0901 74.2431 39.2424 76.1674 39.2525 79.2185C39.2642 82.6795 40.292 83.6804 43.488 83.3425C47.2658 82.9433 50.0588 86.0924 49.6259 90.2627C49.3736 92.6944 50.1878 93.6863 52.7068 94.0164C57.3853 94.6287 59.4215 99.3914 57.1615 104.435L56.5262 105.853L52.3585 101.636C46.8325 96.0451 43.852 94.8189 39.4148 96.3115C38.39 96.656 38.0268 96.6823 37.9252 96.4188C37.8517 96.2271 36.8167 92.6766 35.6258 88.5292C32.9775 79.3077 32.2315 77.7655 29.4696 75.7997L28.6119 75.1895L29.3976 74.414C30.9915 72.8408 33.5416 72.3672 35.6772 73.2478ZM110.543 80.9664C110.427 81.3242 109.369 84.9831 108.192 89.0972C105.722 97.7342 106.108 96.9161 104.766 96.3629C102.909 95.5967 99.46 95.7791 97.3908 96.7529C94.0764 98.3129 81.7231 111.603 81.7231 113.609C81.7231 114.803 78.6301 112.443 77.7507 110.578C76.489 107.903 77.0209 105.718 79.2468 104.43C81.1169 103.348 81.2676 103.054 81.4367 100.146C81.6758 96.0255 82.9095 94.2535 85.7164 93.9979C86.4998 93.9265 87.4414 93.8073 87.8088 93.733C88.8543 93.521 89.6276 91.9877 89.6291 90.124C89.6325 85.1049 94.7541 81.9928 99.2092 84.302C101.413 85.4442 102.959 85.0512 104.238 83.024C105.422 81.1462 106.892 80.3196 109.051 80.3178C110.686 80.3163 110.746 80.3426 110.543 80.9664ZM7.13997 117.43C-1.68708 120.252 -2.55749 132.809 5.80549 136.69C14.9917 140.952 24.3697 131.451 19.7868 122.525C17.598 118.261 11.8208 115.933 7.13997 117.43ZM133.883 121.676C120.099 124.348 119.75 143.999 133.424 147.515C146.201 150.8 155.39 135.272 146.409 125.572C143.412 122.335 138.448 120.791 133.883 121.676ZM12.6125 123.748C14.8286 125.237 15.407 127.472 14.1115 129.541C11.8301 133.185 6.16385 131.657 6.1676 127.399C6.1706 124.062 9.91839 121.938 12.6125 123.748ZM138.716 127.861C143.635 129.303 145.482 135.38 142.177 139.256C137.849 144.333 129.449 141.322 129.461 134.697C129.47 129.83 134.005 126.48 138.716 127.861Z" fill="#64842C"/>
</svg>
